# xmcd CD database file
# Copyright (C) 1997 Ti Kan
# 
# Track frame offsets:
#     150
#     16007
#     41992
#     58170
#     80340
#     111860
#     128370
#     149355
# 
# Disc length: 2267 seconds
# 
# Revision: 1
# Processed by: cddbd v1.4b41PL1 Copyright (c) Steve Scherf et al.
# Submitted via: DiscPlay 4.0.4
# 
DISCID=6408d908
DTITLE=Carey Bell - Heartache And Pain
DYEAR=1900
DGENRE=
TTITLE0=Carey Bell Rocks
TTITLE1=Heartaches And Pains
TTITLE2=One Day You're Gonna Get Lucky
TTITLE3=Black-Eyed Peas
TTITLE4=So Hard To Leave You Alone
TTITLE5=Stop That Train, Conductor
TTITLE6=Everything's Gonna Be All Right
TTITLE7=Capri Crash
EXTD=
EXTT0=
EXTT1=
EXTT2=
EXTT3=
EXTT4=
EXTT5=
EXTT6=
EXTT7=
PLAYORDER=
